<svg t="1770019642808" class="icon" viewBox="0 0 1024 1024" version="1.1" xmlns="http://www.w3.org/2000/svg" p-id="2503" width="16" height="16"><path d="M738.8751591 953.16515795H148.53109306c-78.24915548 0-141.88583414-63.63667862-141.88583413-141.85950529V220.93525777c0-78.22282671 63.63667862-141.85950533 141.88583413-141.85950532h397.67000147c21.19467369 0 38.38737172 17.19269802 38.38737171 38.38737171s-17.19269802 38.38737172-38.38737171 38.38737171H148.53109306c-35.88613695 0-65.08476193 29.19862498-65.08476195 65.0847619v590.37039489c0 35.88613695 29.19862498 65.08476193 65.08476195 65.08476189h590.34406604c35.88613695 0 65.08476193-29.19862498 65.08476191-65.08476189V504.12769263c0-21.22100244 17.19269802-38.38737172 38.38737169-38.38737169s38.38737172 17.19269802 38.38737172 38.38737169v307.1516312c0.02632879 78.24915548-63.61034981 141.88583414-141.85950532 141.88583412z" fill="currentColor" p-id="2504"></path><path d="M368.56076748 782.15968523c-21.19467369 0-38.38737172-17.19269802-38.38737173-38.38737173v-49.55077743c0-238.30185277 193.85885998-432.16071271 432.13438396-432.16071275h209.78777623c21.19467369 0 38.38737172 17.19269802 38.38737169 38.38737171s-17.19269802 38.38737172-38.38737169 38.38737169h-209.78777623c-195.93883415 0-355.35964055 159.42080636-355.35964053 355.35964054v49.55077748c0 21.24733122-17.19269802 38.41370053-38.3873717 38.41370049z" fill="currentColor" p-id="2505"></path><path d="M979.44128756 334.59663196c-9.05710281 0-18.14053437-3.18578325-25.43360843-9.66266485l-207.78678839-184.30151024c-15.87625868-14.05957233-17.32434196-38.33471417-3.23844084-54.184644 14.05957233-15.84992988 38.33471417-17.32434196 54.18464401-3.23844085l207.7867884 184.30151025c15.87625868 14.05957233 17.32434196 38.33471417 3.23844084 54.184644-7.55636192 8.53052707-18.14053437 12.9011057-28.75103559 12.90110569z" fill="currentColor" p-id="2506"></path></svg>
